<svg aria-hidden="true" style="position: absolute; width: 0; height: 0; overflow: hidden;" version="1.1" xmlns="http://www.w3.org/2000/svg" xmlns:xlink="http://www.w3.org/1999/xlink">
<defs>
<symbol id="menu" viewBox="0 0 32 32">
<path d="M2.666 8c0-0.737 0.597-1.334 1.334-1.334v0h24c0.737 0 1.334 0.597 1.334 1.334s-0.597 1.334-1.334 1.334h-24c-0.737 0-1.334-0.597-1.334-1.334v0zM2.666 16.042c0.001-0.736 0.598-1.333 1.334-1.333 0 0 0 0 0 0h24c0.012-0 0.025-0.001 0.039-0.001 0.737 0 1.334 0.597 1.334 1.334s-0.597 1.334-1.334 1.334c-0.014 0-0.027-0-0.041-0.001l0.002 0h-24c-0.737 0-1.334-0.597-1.334-1.334v0zM4 22.752c-0.72 0.022-1.295 0.61-1.295 1.333s0.575 1.311 1.293 1.333l0.002 0h24c0.012 0 0.025 0.001 0.039 0.001 0.737 0 1.334-0.597 1.334-1.334s-0.597-1.334-1.334-1.334c-0.014 0-0.027 0-0.041 0.001l0.002-0z"></path>
</symbol>
<symbol id="rocket" viewBox="0 0 32 32">
<path fill="#7eb101" style="fill: var(--color1, #7eb101)" d="M7.233 13.633l3.534 1.5q0.6-1.2 1.283-2.366t1.45-2.234l-2.633-0.533zM12.367 16.333l4.433 4.434c1.382-0.631 2.552-1.287 3.662-2.027l-0.095 0.060q1.665-1.1 2.7-2.133 2.7-2.7 3.966-5.534t1.367-6.4q-3.567 0.1-6.4 1.367t-5.533 3.967q-1.034 1.034-2.134 2.7c-0.679 1.014-1.335 2.184-1.899 3.405l-0.067 0.161zM20 13.133q-0.666-0.666-0.667-1.65 0-0.982 0.667-1.65 0.666-0.666 1.65-0.666t1.65 0.666 0.667 1.65q0 0.984-0.667 1.65-0.666 0.667-1.65 0.667t-1.65-0.667zM19.5 25.9l3.633-3.633-0.533-2.634q-1.067 0.768-2.233 1.45-1.167 0.684-2.367 1.284zM30.367 2.767q0.3 4.533-1.134 8.266-1.433 3.734-4.733 7.034l-0.067 0.066-0.066 0.067 0.733 3.667q0.1 0.5-0.050 0.966-0.15 0.468-0.517 0.834l-5.7 5.733-2.833-6.6-5.667-5.667-6.6-2.833 5.734-5.7q0.366-0.367 0.833-0.517t0.967-0.050l3.666 0.734c0.019-0.019 0.041-0.036 0.065-0.049l0.002-0.001c0.026-0.014 0.048-0.031 0.067-0.050l-0 0q3.3-3.3 7.033-4.75t8.267-1.15zM5.967 21.167q1.165-1.167 2.85-1.184 1.683-0.015 2.85 1.15 1.165 1.167 1.15 2.85-0.017 1.685-1.184 2.85-0.866 0.867-2.683 1.434t-5.45 1.066q0.5-3.633 1.050-5.466t1.417-2.7zM7.367 22.6q-0.467 0.5-0.834 1.567t-0.633 2.733q1.667-0.267 2.733-0.633 1.067-0.367 1.567-0.834 0.633-0.566 0.65-1.416c0.001-0.018 0.001-0.038 0.001-0.059 0-0.555-0.223-1.058-0.584-1.425l0 0c-0.366-0.361-0.869-0.584-1.425-0.584-0.021 0-0.042 0-0.062 0.001l0.003-0c-0.565 0.002-1.071 0.252-1.414 0.648l-0.002 0.002z"></path>
</symbol>
<symbol id="touch" viewBox="0 0 32 32">
<path fill="#7eb101" style="fill: var(--color1, #7eb101)" d="M15.5 1.333q3.034 0 5.184 2.117t2.15 5.15q0 1.733-0.75 3.267c-0.516 1.040-1.23 1.909-2.101 2.588l-0.016 0.012h-1.133v-1.667c0.627-0.495 1.128-1.12 1.47-1.836l0.013-0.031c0.326-0.675 0.517-1.468 0.517-2.306 0-0.010-0-0.019-0-0.029v0.001q0-2.2-1.567-3.733t-3.767-1.534-3.766 1.534-1.567 3.733q0 1.233 0.517 2.333c0.355 0.747 0.857 1.372 1.472 1.859l0.011 0.008v2.4c-1.227-0.632-2.223-1.564-2.915-2.701l-0.018-0.032c-0.67-1.086-1.067-2.402-1.067-3.812 0-0.020 0-0.039 0-0.058l-0 0.003q0-3.033 2.15-5.15t5.183-2.117zM14.234 29.333q-0.567 0-1.067-0.216c-0.336-0.146-0.624-0.343-0.867-0.584l-6.866-6.866 1.866-1.934q0.466-0.466 1.050-0.716c0.214-0.095 0.464-0.151 0.727-0.151 0.174 0 0.343 0.024 0.503 0.070l-0.013-0.003 2.6 0.6v-10.866q0-1.401 0.967-2.367 0.966-0.966 2.366-0.967 1.401 0 2.367 0.967t0.967 2.367v5.733h0.866q0.166 0 0.3 0.067 0.135 0.066 0.3 0.133l4.934 2.4q0.8 0.367 1.183 1.183t0.217 1.684l-1.2 7.266c-0.107 0.647-0.446 1.2-0.929 1.58l-0.005 0.004c-0.463 0.383-1.063 0.616-1.717 0.616-0.006 0-0.011-0-0.017-0h0.001zM13.967 27.333h9.367l1.433-8.3-6.1-3.033h-1.833v-7.333q0-0.6-0.367-0.967-0.366-0.366-0.967-0.367-0.6 0-0.966 0.367-0.367 0.367-0.367 0.967v13.3l-5.133-1.1-0.767 0.766zM23.334 27.333h-9.367z"></path>
</symbol>
<symbol id="logo" viewBox="0 0 41 32">
<path fill="#ffe550" style="fill: var(--color2, #ffe550)" d="M14.143 6.455c1.010-1.982 3.836-1.982 4.846 0l1.28 2.51c0.395 0.764 1.12 1.309 1.981 1.45l0.016 0.002 2.772 0.442c2.196 0.35 3.070 3.049 1.497 4.625l-1.978 1.983c-0.493 0.494-0.798 1.176-0.798 1.93 0 0.15 0.012 0.298 0.036 0.442l-0.002-0.016 0.437 2.773c0.347 2.2-1.94 3.868-3.92 2.858l-2.511-1.278c-0.358-0.187-0.783-0.296-1.232-0.296s-0.874 0.109-1.247 0.303l0.015-0.007-2.511 1.278c-1.98 1.009-4.267-0.658-3.92-2.858l0.437-2.773c0.021-0.128 0.033-0.276 0.033-0.426 0-0.753-0.305-1.435-0.798-1.93l-1.978-1.983c-1.572-1.576-0.698-4.276 1.497-4.625l2.773-0.441c0.877-0.143 1.602-0.689 1.989-1.438l0.007-0.015z"></path>
<path fill="#2c2c2c" style="fill: var(--color3, #2c2c2c)" d="M1.116 20.357l-0.021 0.005q0.004 0.111-0.011 0.9-0.004 0.785-0.002 1.032 0 0.235-0.010 0.384l0.001 0.336c-0.001 0.105-0.008 0.208-0.021 0.308l0.001-0.012-0.018 0.206q-0.020 0.196-0.084 0.211-0.138 0.032-0.431-0.212-0.295-0.256-0.34-0.447t-0.023-2.798q0.031-2.609-0.14-3.433c-0.010-0.035-0.017-0.075-0.017-0.116 0-0.056 0.011-0.11 0.031-0.158l-0.001 0.003q0.054-0.249 0.55-0.467 0.508-0.221 1.514-0.459 1.017-0.24 1.614-0.27 0.607-0.032 0.652 0.16 0.031 0.127-0.137 0.223t-0.298 0.16q-0.133 0.054-0.348 0.139-0.218 0.074-0.403 0.14-0.188 0.055-0.488 0.16-0.289 0.102-0.536 0.194-0.249 0.081-0.671 0.237-0.422 0.157-0.547 0.197 0.018 0.030 0.033 0.093 0.118 0.499 0.129 2.392 0.665-0.124 1.402-0.366 0.748-0.244 0.917-0.284 0.403-0.095 0.443 0.074 0.078 0.329-0.791 0.77-0.858 0.439-1.95 0.697zM8.033 18.406c-0.058-0.247-0.154-0.465-0.282-0.66l0.005 0.008q-0.194-0.302-0.452-0.398-0.683 0.375-0.992 1.435-0.301 1.047-0.108 1.865t0.644 0.924q0.727-0.329 1.046-1.346 0.327-1.031 0.139-1.828zM5.269 19.161q0.175-0.917 0.642-1.588 0.476-0.685 1.102-0.833 0.635-0.15 1.187 0.291 0.55 0.431 0.732 1.206 0.181 0.765 0.001 1.66c-0.122 0.602-0.372 1.131-0.72 1.58l0.006-0.009q-0.523 0.674-1.255 0.846-0.54 0.128-1.018-0.286t-0.658-1.179q-0.185-0.775-0.019-1.689zM12.833 17.27c-0.058-0.247-0.154-0.465-0.282-0.66l0.005 0.008q-0.194-0.302-0.452-0.398-0.683 0.375-0.992 1.434-0.301 1.048-0.108 1.865 0.194 0.818 0.644 0.925 0.728-0.329 1.046-1.347 0.327-1.030 0.139-1.828zM10.070 18.024q0.175-0.917 0.642-1.588 0.476-0.685 1.102-0.833 0.635-0.151 1.188 0.291 0.548 0.431 0.732 1.206 0.18 0.764 0 1.66c-0.122 0.601-0.372 1.131-0.72 1.579l0.006-0.009q-0.522 0.674-1.254 0.847-0.54 0.127-1.018-0.286t-0.659-1.178q-0.184-0.775-0.019-1.689zM17.839 11.038q0.169-0.041 0.489 0.221 0.326 0.247 0.392 0.524t0.107 1.634q0.039 1.348 0.015 2.812-0.030 3.282-0.273 3.34-0.148 0.035-0.371-0.103-0.215-0.151-0.247-0.289t-0.057-0.57q-0.788 1.308-1.561 1.491-0.466 0.111-0.948-0.225-0.471-0.337-0.58-0.794-0.155-0.658-0.019-1.644c0.105-0.711 0.328-1.351 0.65-1.929l-0.015 0.028q0.492-0.902 1.244-1.079t1.262 0.654q0.008-2.379-0.248-3.698-0.075-0.318 0.158-0.374zM17.907 16.529q-0.136-0.574-0.431-0.919-0.283-0.348-0.559-0.282-0.455 0.108-0.799 0.783c-0.22 0.428-0.38 0.927-0.453 1.452l-0.003 0.024q-0.105 0.788 0.020 1.318c0.025 0.122 0.103 0.221 0.209 0.275l0.002 0.001c0.067 0.035 0.145 0.055 0.229 0.055 0.045 0 0.089-0.006 0.13-0.017l-0.004 0.001q0.414-0.098 0.972-0.858 0.569-0.763 0.695-1.646l0.002-0.135zM24.671 15.892q0.205 0.871-0.438 1.652-0.646 0.769-1.663 1.010-1.006 0.238-1.786-0.127-0.783-0.375-0.893-0.843-0.076-0.318 0.116-0.364 0.169-0.041 0.788 0.352 0.234 0.135 0.589 0.219 0.366 0.082 0.726-0.004 0.742-0.176 1.223-0.693 0.492-0.521 0.387-0.966-0.068-0.287-0.554-0.643c-0.302-0.224-0.645-0.436-1.004-0.619l-0.042-0.019q-0.551-0.295-1.040-0.662-0.489-0.366-0.553-0.632c-0.026-0.112-0.041-0.24-0.041-0.372 0-0.076 0.005-0.151 0.014-0.224l-0.001 0.009q0.036-0.322 0.13-0.49 0.305-0.555 1.083-1.143 0.789-0.591 1.383-0.731c0.057-0.016 0.122-0.024 0.189-0.024 0.139 0 0.27 0.039 0.381 0.106l-0.003-0.002q0.26 0.151 0.313 0.374 0.026 0.106-0.182 0.223t-0.638 0.33c-0.285 0.134-0.527 0.275-0.757 0.433l0.017-0.011q-1.108 0.756-1.005 1.191 0.055 0.234 1.548 1.013 0.575 0.302 1.087 0.763 0.52 0.449 0.625 0.895zM27.104 16.426q0.048 0.202 0.281 0.147 0.403-0.096 0.922-0.454 0.527-0.372 0.591-0.386 0.191-0.045 0.238 0.156 0.074 0.308-0.468 0.862-0.529 0.552-1.048 0.674-0.509 0.12-0.913-0.075-0.407-0.207-0.477-0.505-0.070-0.297-0.051-0.783 0.016-0.498 0.071-1.307 0.063-0.822 0.082-1.354-0.471 0.234-0.64 0.274t-0.379-0.090q-0.201-0.143-0.239-0.302-0.060-0.255 1.262-0.815-0.017-0.927-0.178-1.606-0.076-0.318 0.137-0.369 0.18-0.042 0.5 0.129 0.318 0.16 0.385 0.447t0.058 1.052q0.591-0.197 0.951-0.281 0.636-0.151 0.702 0.126 0.037 0.159-0.287 0.348-0.314 0.186-1.363 0.67-0.024 0.892-0.107 2.055-0.086 1.153-0.030 1.386zM31.839 10.864q0.476-0.113 0.994 0.281 0.516 0.382 0.609 0.775 0.090 0.382-0.080 0.849 0.166 0.129 0.193 0.246 0.070 0.297 0.103 1.052 0.043 0.752 0.065 0.983 0.031 0.228 0.043 0.371 0.009 0.132 0.007 0.268 0.020 0.275-0.128 0.311-0.191 0.044-0.396-0.254-0.197-0.313-0.344-0.838-0.658 1.423-1.465 1.614-0.486 0.115-1.062-0.186-0.567-0.314-0.672-0.761-0.151-0.637 0.095-1.682c0.172-0.744 0.452-1.4 0.826-1.989l-0.015 0.026q0.569-0.908 1.225-1.065zM32.767 12.617q-0.234-0.988-0.626-0.895-0.412 0.098-0.823 0.823c-0.261 0.446-0.474 0.962-0.61 1.508l-0.009 0.041q-0.206 0.834-0.103 1.27c0.027 0.119 0.108 0.215 0.216 0.261l0.002 0.001q0.174 0.071 0.375 0.023 0.497-0.118 0.964-0.935 0.465-0.828 0.48-1.852-0.006-0.166 0.135-0.234z"></path>
<path fill="#bbf330" style="fill: var(--color4, #bbf330)" d="M30.759 19.973c-0.303 0.075-0.542 0.306-0.641 0.602-1.906 5.649-7.244 9.719-13.535 9.719-3.815 0-7.279-1.496-9.84-3.934-0.164-0.159-0.388-0.257-0.635-0.257-0.075 0-0.148 0.009-0.217 0.026l0.006-0.001c-0.639 0.158-0.881 0.935-0.406 1.392 2.861 2.772 6.767 4.481 11.072 4.481 0.007 0 0.013 0 0.020 0h-0.001c7.078 0 13.081-4.606 15.182-10.986 0.206-0.626-0.368-1.199-1.006-1.041zM1.867 14.15c0.343-0.091 0.603-0.371 0.664-0.719l0.001-0.005c1.212-6.665 7.040-11.72 14.051-11.72 4.559 0 8.617 2.137 11.232 5.465 0.22 0.279 0.578 0.413 0.923 0.328 0.583-0.145 0.847-0.825 0.478-1.301-2.924-3.77-7.495-6.198-12.633-6.198-7.881 0-14.431 5.711-15.743 13.225-0.103 0.593 0.445 1.070 1.028 0.926zM40.615 5.332c-3.777 7.241-5.435 2.465-10.753 5.27 0.532-8.405 6.164-3.291 10.753-5.27z"></path>
</symbol>
<symbol id="cross" viewBox="0 0 30 32">
<path d="M16.219 14.826l4.928-4.924c0.166-0.194 0.253-0.443 0.243-0.698s-0.116-0.497-0.296-0.677c-0.181-0.18-0.423-0.286-0.678-0.296s-0.505 0.077-0.699 0.243l-4.928 4.873-4.958-4.954c-0.194-0.166-0.443-0.253-0.699-0.243s-0.497 0.116-0.678 0.296c-0.181 0.18-0.286 0.422-0.296 0.677s0.077 0.504 0.243 0.698l4.948 5.005-4.846 4.782c-0.106 0.091-0.192 0.203-0.253 0.328s-0.095 0.263-0.1 0.402 0.018 0.279 0.069 0.409c0.051 0.13 0.128 0.248 0.227 0.347s0.217 0.176 0.347 0.227c0.13 0.051 0.269 0.074 0.409 0.069s0.277-0.040 0.402-0.1c0.126-0.061 0.238-0.147 0.329-0.253l4.836-4.833 4.806 4.802c0.194 0.166 0.443 0.253 0.699 0.243s0.497-0.116 0.678-0.296c0.181-0.18 0.286-0.422 0.296-0.677s-0.077-0.504-0.243-0.698l-4.786-4.751z"></path>
</symbol>
</defs>
</svg>
